# AST/ASF file generated using VICON BodyLanguage
# -----------------------------------------------
:version 1.10
:name VICON
:units
  mass 1.0
  length 0.45
  angle deg
:documentation
   .ast/.asf automatically generated from VICON data using
   VICON BodyBuilder and BodyLanguage model FoxedUp or BRILLIANT.MOD
:root
   order TX TY TZ RX RY RZ
   axis XYZ
   position 0 0 0  
   orientation 0 0 0 
:bonedata
  begin
     id 1 
     name lhipjoint
     direction 0.671379 -0.66392 0.329334 
     length 2.38647 
     axis 0 0 0  XYZ
  end
  begin
     id 2 
     name lfemur
     direction 0.34202 -0.939693 0  
     length 6.48179  
     axis 0 0 20  XYZ
    dof rx ry rz
    limits (-160.0 20.0)
           (-70.0 70.0)
           (-60.0 70.0)
  end
  begin
     id 3 
     name ltibia
     direction 0.34202 -0.939693 0   
     length 6.86524   
     axis 0 0 20   XYZ
    dof rx
    limits (-10.0 170.0)
  end
  begin
     id 4 
     name lfoot
     direction 0.204886 -0.562919 0.800715   
     length 1.73031   
     axis -90 7.62852e-016 20   XYZ
    dof rx rz
    limits (-45.0 90.0)
           (-70.0 20.0)
  end
  begin
     id 5 
     name ltoes
     direction 1.53548e-011 -4.21841e-011 1   
     length 0.828161   
     axis -90 7.62852e-016 20   XYZ
    dof rx
    limits (-90.0 20.0)
  end
  begin
     id 6 
     name rhipjoint
     direction -0.662732 -0.670855 0.332775   
     length 2.3618  
     axis 0 0 0  XYZ 
  end
  begin
     id 7 
     name rfemur
     direction -0.34202 -0.939693 0   
     length 6.3025   
     axis 0 0 -20   XYZ
    dof rx ry rz
    limits (-160.0 20.0)
           (-70.0 70.0)
           (-70.0 60.0)
  end
  begin
     id 8 
     name rtibia
     direction -0.34202 -0.939693 0   
     length 6.8732   
     axis 0 0 -20   XYZ
    dof rx
    limits (-10.0 170.0)
 end
 begin
     id 9 
     name rfoot
     direction -0.173856 -0.477665 0.861168   
     length 1.54784  
     axis -90 -7.62852e-016 -20   XYZ
    dof rx rz
    limits (-45.0 90.0)
           (-20.0 70.0)
  end
  begin
     id 10 
     name rtoes
     direction -1.53562e-011 -4.21802e-011 1   
     length 0.759618   
     axis -90 -7.62852e-016 -20   XYZ
    dof rx
    limits (-90.0 20.0)
  end
  begin
     id 11 
     name lowerback
     direction -0.0278357 0.999497 -0.0151789   
     length 1.97203   
     axis 0 0 0   XYZ
    dof rx ry rz
    limits (-20.0 45.0)
           (-30.0 30.0)
           (-30.0 30.0)
  end
  begin
     id 12 
     name upperback
     direction -0.00360622 0.997542 0.0699804   
     length 1.94709   
     axis 0 0 0   XYZ
    dof rx ry rz
    limits (-20.0 45.0)
           (-30.0 30.0)
           (-30.0 30.0)
  end
  begin
     id 13 
     name thorax
     direction 0.00907706 0.997048 0.0762461   
     length 1.95722   
     axis 0 0 0   XYZ
    dof rx ry rz
    limits (-20.0 45.0)
           (-30.0 30.0)
           (-30.0 30.0)
  end
  begin
     id 14 
     name lowerneck
     direction -0.0481835 0.99872 -0.0153927   
     length 1.63078   
     axis 0 0 0   XYZ
    dof rx ry rz
    limits (-20.0 45.0)
           (-30.0 30.0)
           (-30.0 30.0)
  end
  begin
     id 15 
     name upperneck
     direction 0.0859716 0.979226 -0.183644   
     length 1.62591   
     axis 0 0 0   XYZ
    dof rx ry rz
    limits (-20.0 45.0)
           (-30.0 30.0)
           (-30.0 30.0)
  end
  begin
     id 16
     name head
     direction 0.0324821 0.997629 -0.0606773  
     length 1.64811  
     axis 0 0 0   XYZ
    dof rx ry rz
    limits (-20.0 45.0)
           (-30.0 30.0)
           (-30.0 30.0)
  end
  begin
     id 17 
     name lclavicle
     direction 0.939609 0.311019 0.142835  
     length 3.70647  
     axis 0 0 0   XYZ
    dof ry rz
    limits (-20.0 10.0)
           (0.0 20.0)
  end
  begin
     id 18 
     name lhumerus
     direction 1 -4.48963e-011 -1.59838e-027   
     length 4.59207   
     axis 180 -30 -90   XYZ
    dof rx ry rz
    limits (-60.0 90.0)
           (-90.0 90.0)
           (-90.0 90.0)
  end
  begin
     id 19
     name lradius
     direction 1 -4.48957e-011 -1.3483e-026   
     length 2.98109   
     axis 180 -30 -90   XYZ
    dof rx
    limits (-10.0 170.0)
  end
  begin
     id 20
     name lwrist
     direction 1 -4.48954e-011 -3.11579e-026   
     length 1.49055   
     axis 2.00652e-014 90 90   XYZ
    dof ry
    limits (-180.0 0.0)
 end
  begin
     id 21 
     name lhand
     direction 1 -4.4911e-011 -6.23158e-026   
     length 0.480203   
     axis 3.97628e-014 90 90   XYZ
    dof rx rz
    limits (-90.0 90.0)
           (-45.0 45.0)
  end
  begin
     id 22 
     name lfingers
     direction 1 -4.48893e-011 -1.24632e-025   
     length 0.387152   
     axis 7.95256e-014 90 90   XYZ
    dof rx
    limits (0.0 90.0)
  end
  begin
     id 23
     name lthumb
     direction 0.707107 -6.35013e-011 0.707107   
     length 0.555875   
     axis -90 45 2.85299e-015   XYZ
    dof rx rz
    limits (-45.0 45.0)
           (-45.0 45.0)
  end
  begin
     id 24 
     name rclavicle
     direction -0.950396 0.30392 0.0661859   
     length 3.70894  
     axis 0 0 0   XYZ 
    dof ry rz
    limits (-10.0 20.0)
           (-20.0 0.0)
  end
  begin
     id 25 
     name rhumerus
     direction -1 -4.48957e-011 -2.96677e-027  
     length 4.76508   
     axis 180 30 90   XYZ
    dof rx ry rz
    limits (-90.0 60.0)
           (-90.0 90.0)
           (-90.0 90.0)
  end
  begin
     id 26 
     name rradius
     direction -1 -4.48974e-011 -1.44501e-026   
     length 2.78902   
     axis 180 30 90   XYZ
    dof rx
    limits (-10.0 170.0)
  end
  begin
     id 27 
     name rwrist
     direction -1 -4.48978e-011 -3.11579e-026   
     length 1.39451   
     axis 2.00652e-014 -90 -90   XYZ
    dof ry
    limits (-180.0 0.0)
  end
  begin
     id 28
     name rhand
     direction -1 -4.48956e-011 -6.23158e-026   
     length 0.721303   
     axis 3.97628e-014 -90 -90   XYZ
    dof rx rz
    limits (-90.0 90.0)
           (-45.0 45.0)
  end
  begin
     id 29
     name rfingers
     direction -1 -4.4899e-011 -1.24632e-025   
     length 0.581533   
     axis 7.95256e-014 -90 -90   XYZ
    dof rx
    limits (0.0 90.0)
  end
  begin
     id 30
     name rthumb
     direction -0.707107 -6.34911e-011 0.707107   
     length 0.834968   
     axis -90 -45 -2.85299e-015   XYZ
    dof rx rz
    limits (-45.0 45.0)
           (-45.0 45.0)
  end
:hierarchy
  begin
    root lhipjoint rhipjoint lowerback
    lhipjoint lfemur
    lfemur ltibia
    ltibia lfoot
    lfoot ltoes
    rhipjoint rfemur
    rfemur rtibia
    rtibia rfoot
    rfoot rtoes
    lowerback upperback
    upperback thorax
    thorax lowerneck lclavicle rclavicle
    lowerneck upperneck
    upperneck head
    lclavicle lhumerus
    lhumerus lradius
    lradius lwrist
    lwrist lhand lthumb
    lhand lfingers
    rclavicle rhumerus
    rhumerus rradius
    rradius rwrist
    rwrist rhand rthumb
    rhand rfingers
  end

#!OML:ASF I:\salsa\salsa 7_09\Patient 1\Session 1\dancerfemale.ASF
:FULLY-SPECIFIED
:DEGREES
1
root 24.4631 15.9941 1.86176 -33.0034 -85.5932 35.774
lowerback 3.4865 4.73522 -1.69279
upperback -3.61244 6.09195 -1.99225
thorax -5.65698 3.02497 -1.6305
lowerneck -0.4946 13.6322 0.478801
upperneck 2.24308 18.1443 1.61617
head 0.654132 9.08589 0.527953
rclavicle -1.33807e-014 -1.39149e-015
rhumerus -45.9452 -5.06004 -88.7731
rradius 42.7725
rwrist -8.00535
rhand 6.96918 33.9172
rfingers 7.12502
rthumb 32.2464 6.76096
lclavicle -1.33807e-014 -1.39149e-015
lhumerus -39.385 11.0957 86.5695
lradius 31.0027
lwrist -21.2084
lhand -22.0779 40.7964
lfingers 7.12502
lthumb 4.33359 70.7321
rfemur -10.3392 -0.609908 14.1589
rtibia 23.2311
rfoot -21.4674 -11.4027
rtoes -16.8506
lfemur -12.1744 0.959895 -22.8861
ltibia 30.2783
lfoot -25.7698 2.46528
ltoes 10.6157
2
root 24.4589 15.997 1.84619 -30.0692 -85.3443 32.9008
lowerback 3.29401 4.98036 -2.05526
upperback -3.55128 6.41995 -1.73881
thorax -5.5505 3.20914 -1.17841
lowerneck -1.98021 14.2385 -0.0723812
upperneck 4.32113 18.8978 2.80255
head 1.38229 9.48429 1.16746
rclavicle 7.66563e-015 8.94531e-015
rhumerus -45.6482 -6.93353 -87.1891
rradius 41.2866
rwrist -7.31011
rhand 6.4079 34.0248
rfingers 7.12502
rthumb 31.7119 6.76146
lclavicle 7.66563e-015 8.94531e-015
lhumerus -38.824 9.94049 88.1124
lradius 31.1992
lwrist -20.8409
lhand -24.3217 29.95
lfingers 7.12502
lthumb 2.16667 59.9188
rfemur -10.3093 -0.85589 14.2697
rtibia 23.2021
rfoot -21.3424 -11.4545
rtoes -18.6802
lfemur -12.2869 0.711293 -22.7825
ltibia 30.2819
lfoot -25.7254 2.4829
ltoes 10.3538
3
root 24.4534 15.9981 1.83114 -26.3776 -85.0496 29.2023
lowerback 3.12693 5.18354 -2.3132
upperback -3.45172 6.6987 -1.49751
thorax -5.41114 3.36409 -0.791607
lowerneck -1.98467 14.6599 0.016616
upperneck 4.78964 19.4519 2.77953
head 1.53684 9.76205 1.1842
rclavicle 2.32454e-014 5.76476e-015
rhumerus -45.4662 -9.06198 -85.5526
rradius 39.8079
rwrist -6.67717
rhand 5.34658 34.1854
rfingers 7.12502
rthumb 30.7005 6.72731
lclavicle 2.32454e-014 5.76476e-015
lhumerus -38.222 8.83163 89.5334
lradius 31.3865
lwrist -20.4593
lhand -23.814 29.3252
lfingers 7.12502
lthumb 2.657 59.2884
rfemur -10.1458 -1.17403 14.4624
rtibia 23.0908
rfoot -21.167 -11.5281
rtoes -19.7208
lfemur -12.3449 0.442102 -22.588
ltibia 30.335
lfoot -25.6766 2.36537
ltoes 10.3769
4
root 24.4482 15.9981 1.81593 -23.019 -84.6753 25.8073
lowerback 3.01867 5.30524 -2.45706
upperback -3.40227 6.86841 -1.31657
thorax -5.33954 3.45841 -0.528628
lowerneck -1.95771 15.1046 -0.078613
upperneck 5.18216 20.0409 2.87159
head 1.63189 10.0564 1.24952
rclavicle -1.758e-015 4.77083e-015
rhumerus -45.5372 -11.4283 -83.8024
rradius 38.3323
rwrist -5.5601
rhand 4.46195 34.4938
rfingers 7.12502
rthumb 29.8566 6.88069
lclavicle -1.758e-015 4.77083e-015
lhumerus -37.8172 7.7673 90.7741
lradius 31.7108
lwrist -19.8098
lhand -23.2613 29.8382
lfingers 7.12502
lthumb 3.19079 59.7941
rfemur -9.94464 -1.45839 14.638
rtibia 22.9903
rfoot -21.0244 -11.6379
rtoes -20.8594
lfemur -12.3777 0.163361 -22.405
ltibia 30.3839
lfoot -25.5774 2.20435
ltoes 10.5821
5
root 24.442 15.9988 1.80082 -20.3867 -84.2309 23.1745
lowerback 2.92324 5.44584 -2.58898
upperback -3.4008 7.05754 -1.2208
thorax -5.31582 3.55959 -0.365319
lowerneck -1.73472 15.1811 0.339055
upperneck 5.3642 20.1397 2.57983
head 1.72563 10.1051 1.11157
rclavicle 6.56797e-014 2.98177e-015
rhumerus -45.8237 -14.0369 -81.8848
rradius 37.024
rwrist -4.19274
rhand 4.1323 34.6843
rfingers 7.12502
rthumb 29.542 7.0151
lclavicle 6.56797e-014 2.98177e-015
lhumerus -37.5515 6.37938 92.0628
lradius 32.3175
lwrist -18.804
lhand -22.6811 30.683
lfingers 7.12502
lthumb 3.75104 60.6298
rfemur -9.73496 -1.78014 14.7512
rtibia 22.8259
rfoot -20.8828 -11.7403
rtoes -22.4039
lfemur -12.468 -0.0624065 -22.2801
ltibia 30.4761
lfoot -25.5349 2.00521
ltoes 10.4178
6
root 24.4334 15.9989 1.78724 -17.9012 -83.7852 20.6805
lowerback 2.76478 5.66038 -2.69572
upperback -3.33194 7.34906 -1.16547
thorax -5.18098 3.70964 -0.253388
lowerneck -1.91444 15.2776 0.761041
upperneck 5.81355 20.2614 2.29571
head 1.97714 10.1664 1.03054
rclavicle -1.72073e-015 2.98177e-016
rhumerus -46.1938 -16.9142 -79.8458
rradius 35.9069
rwrist -2.7995
rhand 4.14011 34.6392
rfingers 7.12502
rthumb 29.5495 6.97126
lclavicle -1.72073e-015 2.98177e-016
lhumerus -37.1913 4.93529 93.3443
lradius 33.0379
lwrist -17.9519
lhand -21.2627 30.0316
lfingers 7.12502
lthumb 5.12066 59.9497
rfemur -9.49067 -2.12305 14.8863
rtibia 22.6188
rfoot -20.73 -11.831
rtoes -24.2074
lfemur -12.5504 -0.230758 -22.13
ltibia 30.5981
lfoot -25.5378 1.73515
ltoes 10.1876
7
root 24.4263 15.9988 1.77437 -14.4124 -83.3056 17.1914
lowerback 2.55777 5.83928 -2.67799
upperback -3.22592 7.60581 -1.04209
thorax -4.97312 3.83957 -0.126884
lowerneck -1.75796 15.1849 1.15387
upperneck 5.53762 20.1557 1.73347
head 1.963 10.107 0.796084
rclavicle 1.04722e-013 -1.22253e-014
rhumerus -46.6423 -19.6439 -77.8075
rradius 34.816
rwrist -1.31266
rhand 4.04401 34.5863
rfingers 7.12502
rthumb 29.4577 6.90222
lclavicle 1.04722e-013 -1.22253e-014
lhumerus -36.7641 4.02336 94.4023
lradius 33.5271
lwrist -17.0078
lhand -19.7914 28.227
lfingers 7.12502
lthumb 6.5412 58.106
rfemur -9.25065 -2.29194 15.1875
rtibia 22.4072
rfoot -20.625 -12.1169
rtoes -25.7495
lfemur -12.6797 -0.511532 -21.8282
ltibia 30.7278
lfoot -25.505 1.48196
ltoes 10.1055
8
root 24.4207 15.9995 1.76108 -11.5106 -82.7391 14.2863
lowerback 2.37442 5.94798 -2.63869
upperback -3.13328 7.76735 -0.92801
thorax -4.78712 3.92115 -0.016533
lowerneck -1.55822 15.2436 1.19033
upperneck 5.43103 20.2388 1.67257
head 1.90407 10.1476 0.752194
rclavicle -2.89294e-014 -4.96962e-015
rhumerus -47.1159 -21.8753 -75.9971
rradius 33.7247
rwrist -0.189944
rhand 3.97474 34.4227
rfingers 7.12502
rthumb 29.3916 6.72694
lclavicle -2.89294e-014 -4.96962e-015
lhumerus -36.4123 3.36883 95.2759
lradius 34.612
lwrist -17.2241
lhand -17.9247 31.6174
lfingers 7.12502
lthumb 8.34296 61.4327
rfemur -8.99645 -2.32303 15.4722
rtibia 22.1988
rfoot -20.518 -12.6092
rtoes -26.7184
lfemur -12.8327 -0.81739 -21.5524
ltibia 30.8701
lfoot -25.4683 1.19467
ltoes 9.82413
9
root 24.4151 15.9998 1.74803 -10.3482 -82.1338 13.1178
lowerback 2.22693 6.00936 -2.72294
upperback -3.0491 7.85459 -0.883177
thorax -4.63613 3.96812 0.0908737
lowerneck -1.42224 15.2823 1.13296
upperneck 5.17575 20.3016 1.54973
head 1.80466 10.1754 0.698842
rclavicle -1.01744e-013 -1.54058e-014
rhumerus -47.603 -23.5866 -74.5358
rradius 32.7694
rwrist 0.439053
rhand 3.87202 34.264
rfingers 7.12502
rthumb 29.2935 6.55113
lclavicle -1.01744e-013 -1.54058e-014
lhumerus -36.1477 2.83406 96.0093
lradius 35.3006
lwrist -16.1424
lhand -19.9343 30.8631
lfingers 7.12502
lthumb 6.40326 60.7463
rfemur -8.74056 -2.34055 15.5607
rtibia 22.0082
rfoot -20.3682 -13.1219
rtoes -28.3021
lfemur -12.9735 -1.01416 -21.4711
ltibia 31.0149
lfoot -25.4163 0.808147
ltoes 9.50367
10
root 24.4113 16.0007 1.73844 -8.93702 -81.3812 11.8375
lowerback 2.02287 5.97698 -2.67392
upperback -3.03375 7.81982 -0.897451
thorax -4.49499 3.94916 0.077686
lowerneck -1.34795 15.3159 1.15547
upperneck 5.01023 20.3569 1.35351
head 1.76207 10.1992 0.627184
rclavicle 4.52825e-014 3.08116e-015
rhumerus -48.1291 -24.893 -73.3962
rradius 32.0214
rwrist 1.08106
rhand 3.76122 34.0921
rfingers 7.12502
rthumb 29.1877 6.36076
lclavicle 4.52825e-014 3.08116e-015
lhumerus -35.9365 2.49502 96.5185
lradius 35.9625
lwrist -14.9476
lhand -20.5534 29.5081
lfingers 7.12502
lthumb 5.80556 59.4086
rfemur -8.63507 -2.44124 15.6598
rtibia 21.865
rfoot -20.3773 -13.7355
rtoes -28.6342
lfemur -13.2874 -1.40251 -21.3883
ltibia 31.1287
lfoot -25.2861 0.46548
ltoes 9.39197
